<svg xmlns="http://www.w3.org/2000/svg" width="24" height="24" viewBox="0 0 24 24"><path d="M8.213 16.984c.97-1.028 2.308-1.664 3.787-1.664s2.817.636 3.787 1.664l-3.787 4.016-3.787-4.016zm3.787-6.78c2.387 0 4.648.876 6.461 2.485l-.969 1.028c-1.556-1.308-3.472-2.018-5.492-2.018-2.021 0-3.937.71-5.492 2.018l-.969-1.028c1.813-1.609 4.075-2.485 6.461-2.485zm0-1c-3.071 0-5.852 1.32-7.864 3.455l2.33 2.472c1.417-1.502 3.373-2.431 5.534-2.431s4.117.929 5.534 2.431l2.33-2.472c-2.012-2.135-4.793-3.455-7.864-3.455zm0-5.204c3.949 0 7.682 1.517 10.607 4.291l-1.021 1.083c-2.656-2.452-6.023-3.791-9.586-3.791s-6.93 1.339-9.586 3.791l-1.021-1.083c2.926-2.774 6.658-4.291 10.607-4.291zm0-1c-4.687 0-8.929 2.015-12 5.272l2.388 2.533c2.46-2.609 5.859-4.222 9.612-4.222 3.754 0 7.152 1.613 9.611 4.222l2.389-2.533c-3.071-3.257-7.313-5.272-12-5.272z"/></svg>