<?xml version="1.0" standalone="no"?>
<svg version="1.0" xmlns="http://www.w3.org/2000/svg" xmlns:xlink="http://www.w3.org/1999/xlink" x="0px" y="0px"
     width="64.000000pt" height="64.000000pt" viewBox="0 0 64.000000 64.000000"
     preserveAspectRatio="xMidYMid meet">
    <g transform="translate(0.000000,64.000000) scale(0.100000,-0.100000)"
       fill="#ffffff" stroke="none">
        <path d="M260 570 c-13 -9 -13 -10 0 -10 8 0 22 5 30 10 13 9 13 10 0 10 -8 0
-22 -5 -30 -10z"/>
        <path d="M415 549 c-4 -6 -14 -8 -22 -5 -11 5 -13 2 -9 -10 9 -22 -11 -44 -40
-44 -13 0 -29 -9 -36 -20 -7 -11 -18 -20 -25 -20 -7 0 -13 -4 -13 -10 0 -15
16 -12 30 5 14 17 66 20 75 4 5 -7 14 -3 26 10 23 24 30 26 47 9 19 -19 14
-28 -15 -29 -24 -2 -25 -2 -5 -6 14 -3 22 -12 22 -26 1 -21 41 -77 56 -77 8 0
33 32 34 44 0 4 -6 6 -14 3 -13 -5 -36 10 -36 24 0 4 16 5 35 2 23 -4 35 -2
35 6 0 50 -126 172 -145 140z"/>
        <path d="M340 530 c-9 -6 -10 -10 -3 -10 6 0 15 5 18 10 8 12 4 12 -15 0z"/>
        <path d="M295 412 c-68 -23 -100 -82 -69 -130 13 -19 22 -23 47 -19 40 6 67
-8 67 -33 0 -10 5 -22 11 -26 6 -3 8 -15 6 -26 -8 -30 12 -78 34 -78 21 0 85
76 81 97 -2 8 9 34 23 59 21 35 23 44 10 44 -8 0 -30 20 -47 45 -28 40 -36 45
-66 43 -23 -1 -38 4 -47 15 -13 18 -18 19 -50 9z"/>
        <path d="M60 299 c0 -41 47 -146 59 -133 22 24 20 61 -4 84 -14 13 -25 28 -25
34 0 6 -7 20 -15 30 -14 19 -15 18 -15 -15z"/>
    </g>
</svg>
